<mxfile host="app.diagrams.net" modified="2021-04-09T04:54:36.114Z" agent="5.0 (Windows NT 10.0; Win64; x64) AppleWebKit/537.36 (KHTML, like Gecko) Chrome/89.0.4389.90 Safari/537.36" etag="luU-nbMmj-l8N_xoe13w" version="14.3.1" type="github" pages="2">
  <diagram id="dw9lIYEvXFkv0Y57JhP9" name="Page-1">
    <mxGraphModel dx="2272" dy="737" grid="1" gridSize="10" guides="1" tooltips="1" connect="1" arrows="1" fold="1" page="1" pageScale="1" pageWidth="850" pageHeight="1100" math="0" shadow="0">
      <root>
        <mxCell id="0" />
        <mxCell id="1" parent="0" />
        <mxCell id="nQjChulMufH8_7eePQzm-32" value="" style="whiteSpace=wrap;html=1;shadow=0;" parent="1" vertex="1">
          <mxGeometry x="660" y="397.5" width="270" height="240" as="geometry" />
        </mxCell>
        <mxCell id="nQjChulMufH8_7eePQzm-31" value="" style="whiteSpace=wrap;html=1;shadow=0;" parent="1" vertex="1">
          <mxGeometry x="320" y="610" width="270" height="230" as="geometry" />
        </mxCell>
        <mxCell id="nQjChulMufH8_7eePQzm-3" value="CLOUD GENIX CONTROLER&lt;br&gt;SD-WAN" style="ellipse;shape=cloud;whiteSpace=wrap;html=1;fillColor=#fad9d5;strokeColor=#ae4132;" parent="1" vertex="1">
          <mxGeometry x="-280.5" y="350" width="407" height="230" as="geometry" />
        </mxCell>
        <mxCell id="nQjChulMufH8_7eePQzm-6" value="Acton DC" style="verticalLabelPosition=bottom;html=1;verticalAlign=top;strokeWidth=1;align=center;outlineConnect=0;dashed=0;outlineConnect=0;shape=mxgraph.aws3d.dataCenter;strokeColor=#5E5E5E;aspect=fixed;" parent="1" vertex="1">
          <mxGeometry x="680" y="400" width="60.64" height="70" as="geometry" />
        </mxCell>
        <mxCell id="nQjChulMufH8_7eePQzm-10" value="Charlotte DC" style="verticalLabelPosition=bottom;html=1;verticalAlign=top;strokeWidth=1;align=center;outlineConnect=0;dashed=0;outlineConnect=0;shape=mxgraph.aws3d.dataCenter;strokeColor=#5E5E5E;aspect=fixed;shadow=0;" parent="1" vertex="1">
          <mxGeometry x="398.03" y="610" width="51.97" height="60" as="geometry" />
        </mxCell>
        <mxCell id="nQjChulMufH8_7eePQzm-11" value="" style="ellipse;shape=cloud;whiteSpace=wrap;html=1;fillColor=#dae8fc;strokeColor=#6c8ebf;" parent="1" vertex="1">
          <mxGeometry x="210" y="380" width="470" height="240" as="geometry" />
        </mxCell>
        <mxCell id="nQjChulMufH8_7eePQzm-13" value="GBT CLOUD VPC" style="ellipse;shape=cloud;whiteSpace=wrap;html=1;fillColor=#ffe6cc;strokeColor=#d79b00;" parent="1" vertex="1">
          <mxGeometry x="260" y="140" width="420" height="220" as="geometry" />
        </mxCell>
        <mxCell id="nQjChulMufH8_7eePQzm-17" value="" style="edgeStyle=orthogonalEdgeStyle;rounded=0;orthogonalLoop=1;jettySize=auto;html=1;" parent="1" source="nQjChulMufH8_7eePQzm-15" target="nQjChulMufH8_7eePQzm-16" edge="1">
          <mxGeometry relative="1" as="geometry" />
        </mxCell>
        <mxCell id="nQjChulMufH8_7eePQzm-15" value="DEV" style="ellipse;shape=cloud;whiteSpace=wrap;html=1;" parent="1" vertex="1">
          <mxGeometry x="510" y="260" width="120" height="80" as="geometry" />
        </mxCell>
        <mxCell id="nQjChulMufH8_7eePQzm-16" value="PROD" style="ellipse;shape=cloud;whiteSpace=wrap;html=1;" parent="1" vertex="1">
          <mxGeometry x="305" y="260" width="120" height="80" as="geometry" />
        </mxCell>
        <mxCell id="nQjChulMufH8_7eePQzm-18" value="Palo Alto" style="aspect=fixed;html=1;points=[];align=center;image;fontSize=12;image=img/lib/mscae/Azure_Firewall.svg;" parent="1" vertex="1">
          <mxGeometry x="472.27" y="290" width="50" height="50" as="geometry" />
        </mxCell>
        <mxCell id="nQjChulMufH8_7eePQzm-19" value="Palo Alto" style="image;html=1;image=img/lib/clip_art/networking/Firewall_02_128x128.png" parent="1" vertex="1">
          <mxGeometry x="398.03" y="580" width="60" height="40" as="geometry" />
        </mxCell>
        <mxCell id="nQjChulMufH8_7eePQzm-23" value="" style="points=[[0.015,0.015,0],[0.985,0.015,0],[0.985,0.985,0],[0.015,0.985,0],[0.25,0,0],[0.5,0,0],[0.75,0,0],[1,0.25,0],[1,0.5,0],[1,0.75,0],[0.75,1,0],[0.5,1,0],[0.25,1,0],[0,0.75,0],[0,0.5,0],[0,0.25,0]];verticalLabelPosition=bottom;html=1;verticalAlign=top;aspect=fixed;align=center;pointerEvents=1;shape=mxgraph.cisco19.rect;prIcon=router_with_firewall2;fillColor=#FAFAFA;strokeColor=#005073;" parent="1" vertex="1">
          <mxGeometry x="40" y="465" width="64" height="50" as="geometry" />
        </mxCell>
        <mxCell id="nQjChulMufH8_7eePQzm-25" value="ATT MPLS" style="ellipse;shape=cloud;whiteSpace=wrap;html=1;fillColor=#f0a30a;strokeColor=#BD7000;fontColor=#ffffff;" parent="1" vertex="1">
          <mxGeometry x="338.03" y="497.5" width="120" height="40" as="geometry" />
        </mxCell>
        <mxCell id="nQjChulMufH8_7eePQzm-27" value="INTERNET" style="ellipse;shape=cloud;whiteSpace=wrap;html=1;" parent="1" vertex="1">
          <mxGeometry x="486.04" y="470" width="110" height="60" as="geometry" />
        </mxCell>
        <mxCell id="nQjChulMufH8_7eePQzm-33" value="CDE" style="pointerEvents=1;shadow=0;dashed=0;html=1;strokeColor=none;fillColor=#4495D1;labelPosition=center;verticalLabelPosition=bottom;verticalAlign=top;align=center;outlineConnect=0;shape=mxgraph.veeam.hyper_v_vmware_host;" parent="1" vertex="1">
          <mxGeometry x="325" y="750" width="30" height="50" as="geometry" />
        </mxCell>
        <mxCell id="nQjChulMufH8_7eePQzm-40" value="Share" style="pointerEvents=1;shadow=0;dashed=0;html=1;strokeColor=none;fillColor=#4495D1;labelPosition=center;verticalLabelPosition=bottom;verticalAlign=top;align=center;outlineConnect=0;shape=mxgraph.veeam.hyper_v_vmware_host;" parent="1" vertex="1">
          <mxGeometry x="365" y="750" width="30" height="50" as="geometry" />
        </mxCell>
        <mxCell id="nQjChulMufH8_7eePQzm-43" value="ENT" style="pointerEvents=1;shadow=0;dashed=0;html=1;strokeColor=none;fillColor=#4495D1;labelPosition=center;verticalLabelPosition=bottom;verticalAlign=top;align=center;outlineConnect=0;shape=mxgraph.veeam.hyper_v_vmware_host;" parent="1" vertex="1">
          <mxGeometry x="405" y="750" width="30" height="50" as="geometry" />
        </mxCell>
        <mxCell id="nQjChulMufH8_7eePQzm-44" value="PCI" style="pointerEvents=1;shadow=0;dashed=0;html=1;strokeColor=none;fillColor=#4495D1;labelPosition=center;verticalLabelPosition=bottom;verticalAlign=top;align=center;outlineConnect=0;shape=mxgraph.veeam.hyper_v_vmware_host;" parent="1" vertex="1">
          <mxGeometry x="450" y="750" width="30" height="50" as="geometry" />
        </mxCell>
        <mxCell id="nQjChulMufH8_7eePQzm-45" value="PROD" style="pointerEvents=1;shadow=0;dashed=0;html=1;strokeColor=none;fillColor=#4495D1;labelPosition=center;verticalLabelPosition=bottom;verticalAlign=top;align=center;outlineConnect=0;shape=mxgraph.veeam.hyper_v_vmware_host;" parent="1" vertex="1">
          <mxGeometry x="500" y="750" width="30" height="50" as="geometry" />
        </mxCell>
        <mxCell id="nQjChulMufH8_7eePQzm-46" value="N PROD" style="pointerEvents=1;shadow=0;dashed=0;html=1;strokeColor=none;fillColor=#4495D1;labelPosition=center;verticalLabelPosition=bottom;verticalAlign=top;align=center;outlineConnect=0;shape=mxgraph.veeam.hyper_v_vmware_host;" parent="1" vertex="1">
          <mxGeometry x="545" y="750" width="30" height="50" as="geometry" />
        </mxCell>
        <mxCell id="nQjChulMufH8_7eePQzm-47" value="SD-wan Branch" style="shape=mxgraph.cisco.buildings.branch_office;html=1;pointerEvents=1;dashed=0;fillColor=#036897;strokeColor=#ffffff;strokeWidth=2;verticalLabelPosition=bottom;verticalAlign=top;align=center;outlineConnect=0;shadow=0;" parent="1" vertex="1">
          <mxGeometry x="270" y="540" width="30" height="40" as="geometry" />
        </mxCell>
        <mxCell id="nQjChulMufH8_7eePQzm-49" value="SD-wan Branch" style="shape=mxgraph.cisco.buildings.branch_office;html=1;pointerEvents=1;dashed=0;fillColor=#036897;strokeColor=#ffffff;strokeWidth=2;verticalLabelPosition=bottom;verticalAlign=top;align=center;outlineConnect=0;shadow=0;" parent="1" vertex="1">
          <mxGeometry x="590" y="570" width="30" height="40" as="geometry" />
        </mxCell>
        <mxCell id="nQjChulMufH8_7eePQzm-51" value="" style="endArrow=none;dashed=1;html=1;dashPattern=1 3;strokeWidth=2;" parent="1" source="nQjChulMufH8_7eePQzm-3" target="nQjChulMufH8_7eePQzm-49" edge="1">
          <mxGeometry width="50" height="50" relative="1" as="geometry">
            <mxPoint x="140" y="550" as="sourcePoint" />
            <mxPoint x="190" y="500" as="targetPoint" />
            <Array as="points">
              <mxPoint x="190" y="460" />
            </Array>
          </mxGeometry>
        </mxCell>
        <mxCell id="nQjChulMufH8_7eePQzm-52" value="" style="endArrow=none;dashed=1;html=1;dashPattern=1 3;strokeWidth=2;" parent="1" source="nQjChulMufH8_7eePQzm-48" edge="1">
          <mxGeometry width="50" height="50" relative="1" as="geometry">
            <mxPoint x="130.0023944898489" y="341.4107086419366" as="sourcePoint" />
            <mxPoint x="299.71" y="425.00395894428164" as="targetPoint" />
          </mxGeometry>
        </mxCell>
        <mxCell id="nQjChulMufH8_7eePQzm-53" value="" style="endArrow=none;dashed=1;html=1;dashPattern=1 3;strokeWidth=2;" parent="1" edge="1">
          <mxGeometry width="50" height="50" relative="1" as="geometry">
            <mxPoint x="120.2923944898489" y="480.31070864193657" as="sourcePoint" />
            <mxPoint x="290" y="563.9039589442816" as="targetPoint" />
          </mxGeometry>
        </mxCell>
        <mxCell id="nQjChulMufH8_7eePQzm-55" value="FTD" style="aspect=fixed;perimeter=ellipsePerimeter;html=1;align=center;shadow=0;dashed=0;spacingTop=3;image;image=img/lib/active_directory/firewall.svg;" parent="1" vertex="1">
          <mxGeometry x="519.25" y="600" width="30.5" height="50" as="geometry" />
        </mxCell>
        <mxCell id="nQjChulMufH8_7eePQzm-56" value="FTD" style="aspect=fixed;perimeter=ellipsePerimeter;html=1;align=center;shadow=0;dashed=0;spacingTop=3;image;image=img/lib/active_directory/firewall.svg;" parent="1" vertex="1">
          <mxGeometry x="850" y="415" width="30.5" height="50" as="geometry" />
        </mxCell>
        <mxCell id="nQjChulMufH8_7eePQzm-59" value="" style="endArrow=none;dashed=1;html=1;entryX=0.8;entryY=0.8;entryDx=0;entryDy=0;entryPerimeter=0;" parent="1" source="nQjChulMufH8_7eePQzm-10" target="nQjChulMufH8_7eePQzm-3" edge="1">
          <mxGeometry width="50" height="50" relative="1" as="geometry">
            <mxPoint x="320" y="648" as="sourcePoint" />
            <mxPoint x="170" y="600" as="targetPoint" />
          </mxGeometry>
        </mxCell>
        <mxCell id="nQjChulMufH8_7eePQzm-60" value="" style="endArrow=none;dashed=1;html=1;entryX=0.8;entryY=0.8;entryDx=0;entryDy=0;entryPerimeter=0;" parent="1" source="nQjChulMufH8_7eePQzm-20" edge="1">
          <mxGeometry width="50" height="50" relative="1" as="geometry">
            <mxPoint x="459.4" y="563.9268374351248" as="sourcePoint" />
            <mxPoint x="140.00000000000037" y="465" as="targetPoint" />
          </mxGeometry>
        </mxCell>
        <mxCell id="nQjChulMufH8_7eePQzm-61" value="" style="outlineConnect=0;dashed=0;verticalLabelPosition=bottom;verticalAlign=top;align=center;html=1;shape=mxgraph.aws3.vpc_peering;fillColor=#F58534;gradientColor=none;shadow=0;" parent="1" vertex="1">
          <mxGeometry x="450" y="239.4" width="36.04" height="40" as="geometry" />
        </mxCell>
        <mxCell id="nQjChulMufH8_7eePQzm-71" value="CDE" style="pointerEvents=1;shadow=0;dashed=0;html=1;strokeColor=none;fillColor=#4495D1;labelPosition=center;verticalLabelPosition=bottom;verticalAlign=top;align=center;outlineConnect=0;shape=mxgraph.veeam.hyper_v_vmware_host;" parent="1" vertex="1">
          <mxGeometry x="672.5" y="560" width="30" height="50" as="geometry" />
        </mxCell>
        <mxCell id="nQjChulMufH8_7eePQzm-72" value="Share" style="pointerEvents=1;shadow=0;dashed=0;html=1;strokeColor=none;fillColor=#4495D1;labelPosition=center;verticalLabelPosition=bottom;verticalAlign=top;align=center;outlineConnect=0;shape=mxgraph.veeam.hyper_v_vmware_host;" parent="1" vertex="1">
          <mxGeometry x="710.64" y="560" width="30" height="50" as="geometry" />
        </mxCell>
        <mxCell id="nQjChulMufH8_7eePQzm-74" value="PROD" style="pointerEvents=1;shadow=0;dashed=0;html=1;strokeColor=none;fillColor=#4495D1;labelPosition=center;verticalLabelPosition=bottom;verticalAlign=top;align=center;outlineConnect=0;shape=mxgraph.veeam.hyper_v_vmware_host;" parent="1" vertex="1">
          <mxGeometry x="837.5" y="560" width="30" height="50" as="geometry" />
        </mxCell>
        <mxCell id="nQjChulMufH8_7eePQzm-75" value="N PROD" style="pointerEvents=1;shadow=0;dashed=0;html=1;strokeColor=none;fillColor=#4495D1;labelPosition=center;verticalLabelPosition=bottom;verticalAlign=top;align=center;outlineConnect=0;shape=mxgraph.veeam.hyper_v_vmware_host;" parent="1" vertex="1">
          <mxGeometry x="887.5" y="560" width="30" height="50" as="geometry" />
        </mxCell>
        <mxCell id="nQjChulMufH8_7eePQzm-77" value="N9k" style="points=[[0.015,0.015,0],[0.985,0.015,0],[0.985,0.985,0],[0.015,0.985,0],[0.25,0,0],[0.5,0,0],[0.75,0,0],[1,0.25,0],[1,0.5,0],[1,0.75,0],[0.75,1,0],[0.5,1,0],[0.25,1,0],[0,0.75,0],[0,0.5,0],[0,0.25,0]];verticalLabelPosition=bottom;html=1;verticalAlign=top;aspect=fixed;align=center;pointerEvents=1;shape=mxgraph.cisco19.rect;prIcon=nexus_9300;fillColor=#FAFAFA;strokeColor=#005073;shadow=0;" parent="1" vertex="1">
          <mxGeometry x="515" y="680" width="40" height="40" as="geometry" />
        </mxCell>
        <mxCell id="nQjChulMufH8_7eePQzm-78" value="N9K" style="points=[[0.015,0.015,0],[0.985,0.015,0],[0.985,0.985,0],[0.015,0.985,0],[0.25,0,0],[0.5,0,0],[0.75,0,0],[1,0.25,0],[1,0.5,0],[1,0.75,0],[0.75,1,0],[0.5,1,0],[0.25,1,0],[0,0.75,0],[0,0.5,0],[0,0.25,0]];verticalLabelPosition=bottom;html=1;verticalAlign=top;aspect=fixed;align=center;pointerEvents=1;shape=mxgraph.cisco19.rect;prIcon=nexus_9300;fillColor=#FAFAFA;strokeColor=#005073;shadow=0;" parent="1" vertex="1">
          <mxGeometry x="850" y="490" width="40" height="40" as="geometry" />
        </mxCell>
        <mxCell id="nQjChulMufH8_7eePQzm-82" value="" style="endArrow=classic;startArrow=classic;html=1;" parent="1" source="nQjChulMufH8_7eePQzm-6" target="nQjChulMufH8_7eePQzm-56" edge="1">
          <mxGeometry width="50" height="50" relative="1" as="geometry">
            <mxPoint x="720" y="490" as="sourcePoint" />
            <mxPoint x="770" y="440" as="targetPoint" />
          </mxGeometry>
        </mxCell>
        <mxCell id="nQjChulMufH8_7eePQzm-83" value="" style="endArrow=classic;startArrow=classic;html=1;entryX=0;entryY=0.5;entryDx=0;entryDy=0;" parent="1" source="nQjChulMufH8_7eePQzm-10" target="nQjChulMufH8_7eePQzm-55" edge="1">
          <mxGeometry width="50" height="50" relative="1" as="geometry">
            <mxPoint x="450" y="680" as="sourcePoint" />
            <mxPoint x="500" y="630" as="targetPoint" />
          </mxGeometry>
        </mxCell>
        <mxCell id="nQjChulMufH8_7eePQzm-84" value="Cisco DC(VIOCE)" style="outlineConnect=0;dashed=0;verticalLabelPosition=bottom;verticalAlign=top;align=center;html=1;shape=mxgraph.aws3.corporate_data_center;fillColor=#7D7C7C;gradientColor=none;shadow=0;" parent="1" vertex="1">
          <mxGeometry x="80" y="620" width="46.5" height="63" as="geometry" />
        </mxCell>
        <mxCell id="nQjChulMufH8_7eePQzm-85" value="3RD PARTY" style="verticalLabelPosition=bottom;html=1;verticalAlign=top;strokeWidth=1;align=center;outlineConnect=0;dashed=0;outlineConnect=0;shape=mxgraph.aws3d.oracleDataCenter;fillColor=#ffffff;strokeColor=#5E5E5E;aspect=fixed;shadow=0;" parent="1" vertex="1">
          <mxGeometry x="97" y="239.4" width="53" height="61.19" as="geometry" />
        </mxCell>
        <mxCell id="nQjChulMufH8_7eePQzm-86" value="&lt;h1&gt;&lt;br&gt;&lt;/h1&gt;&lt;div&gt;Travelport&lt;/div&gt;&lt;div&gt;Amadeus&lt;/div&gt;&lt;div&gt;Saber&lt;/div&gt;&lt;div&gt;&lt;br&gt;&lt;/div&gt;" style="text;html=1;strokeColor=none;fillColor=none;spacing=5;spacingTop=-20;whiteSpace=wrap;overflow=hidden;rounded=0;shadow=0;" parent="1" vertex="1">
          <mxGeometry x="30" y="200" width="120" height="130" as="geometry" />
        </mxCell>
        <mxCell id="nQjChulMufH8_7eePQzm-89" value="Verizon MPLS" style="ellipse;shape=cloud;whiteSpace=wrap;html=1;fillColor=#d80073;strokeColor=#A50040;fontColor=#ffffff;" parent="1" vertex="1">
          <mxGeometry x="368.03" y="470" width="120" height="40" as="geometry" />
        </mxCell>
        <mxCell id="nQjChulMufH8_7eePQzm-90" value="" style="endArrow=none;html=1;" parent="1" source="nQjChulMufH8_7eePQzm-45" edge="1">
          <mxGeometry width="50" height="50" relative="1" as="geometry">
            <mxPoint x="469.25" y="770" as="sourcePoint" />
            <mxPoint x="519.25" y="720" as="targetPoint" />
          </mxGeometry>
        </mxCell>
        <mxCell id="nQjChulMufH8_7eePQzm-91" value="" style="endArrow=none;html=1;entryX=0.5;entryY=1;entryDx=0;entryDy=0;entryPerimeter=0;" parent="1" source="nQjChulMufH8_7eePQzm-46" target="nQjChulMufH8_7eePQzm-77" edge="1">
          <mxGeometry width="50" height="50" relative="1" as="geometry">
            <mxPoint x="526.9318181818185" y="760" as="sourcePoint" />
            <mxPoint x="529.25" y="730" as="targetPoint" />
          </mxGeometry>
        </mxCell>
        <mxCell id="nQjChulMufH8_7eePQzm-92" value="" style="endArrow=none;html=1;" parent="1" source="nQjChulMufH8_7eePQzm-40" target="nQjChulMufH8_7eePQzm-77" edge="1">
          <mxGeometry width="50" height="50" relative="1" as="geometry">
            <mxPoint x="526.9318181818185" y="760" as="sourcePoint" />
            <mxPoint x="529.25" y="730" as="targetPoint" />
          </mxGeometry>
        </mxCell>
        <mxCell id="nQjChulMufH8_7eePQzm-93" value="" style="endArrow=none;html=1;" parent="1" source="nQjChulMufH8_7eePQzm-43" target="nQjChulMufH8_7eePQzm-77" edge="1">
          <mxGeometry width="50" height="50" relative="1" as="geometry">
            <mxPoint x="526.9318181818185" y="760" as="sourcePoint" />
            <mxPoint x="529.25" y="730" as="targetPoint" />
          </mxGeometry>
        </mxCell>
        <mxCell id="nQjChulMufH8_7eePQzm-94" value="" style="endArrow=none;html=1;entryX=0;entryY=0.75;entryDx=0;entryDy=0;entryPerimeter=0;" parent="1" source="nQjChulMufH8_7eePQzm-44" target="nQjChulMufH8_7eePQzm-77" edge="1">
          <mxGeometry width="50" height="50" relative="1" as="geometry">
            <mxPoint x="526.9318181818185" y="760" as="sourcePoint" />
            <mxPoint x="529.25" y="730" as="targetPoint" />
          </mxGeometry>
        </mxCell>
        <mxCell id="nQjChulMufH8_7eePQzm-95" value="" style="endArrow=none;html=1;" parent="1" source="nQjChulMufH8_7eePQzm-33" target="nQjChulMufH8_7eePQzm-77" edge="1">
          <mxGeometry width="50" height="50" relative="1" as="geometry">
            <mxPoint x="558.636363636364" y="760" as="sourcePoint" />
            <mxPoint x="545" y="730" as="targetPoint" />
          </mxGeometry>
        </mxCell>
        <mxCell id="nQjChulMufH8_7eePQzm-96" value="" style="endArrow=none;html=1;entryX=1;entryY=1;entryDx=0;entryDy=0;" parent="1" target="nQjChulMufH8_7eePQzm-55" edge="1">
          <mxGeometry width="50" height="50" relative="1" as="geometry">
            <mxPoint x="545" y="680" as="sourcePoint" />
            <mxPoint x="580" y="650" as="targetPoint" />
          </mxGeometry>
        </mxCell>
        <mxCell id="nQjChulMufH8_7eePQzm-97" value="" style="shape=flexArrow;endArrow=classic;startArrow=classic;html=1;entryX=1.021;entryY=0.63;entryDx=0;entryDy=0;entryPerimeter=0;exitX=0.262;exitY=0.217;exitDx=0;exitDy=0;exitPerimeter=0;startWidth=17;startSize=10.6;" parent="1" source="nQjChulMufH8_7eePQzm-11" target="nQjChulMufH8_7eePQzm-86" edge="1">
          <mxGeometry width="50" height="50" relative="1" as="geometry">
            <mxPoint x="150" y="370" as="sourcePoint" />
            <mxPoint x="200" y="320" as="targetPoint" />
          </mxGeometry>
        </mxCell>
        <mxCell id="nQjChulMufH8_7eePQzm-48" value="GBT Implant Office" style="shape=mxgraph.cisco.buildings.branch_office;html=1;pointerEvents=1;dashed=0;fillColor=#d5e8d4;strokeColor=#82b366;strokeWidth=2;verticalLabelPosition=bottom;verticalAlign=top;align=center;outlineConnect=0;shadow=0;gradientColor=#97d077;" parent="1" vertex="1">
          <mxGeometry x="270" y="410" width="30" height="45" as="geometry" />
        </mxCell>
        <mxCell id="nQjChulMufH8_7eePQzm-98" value="" style="endArrow=none;dashed=1;html=1;dashPattern=1 3;strokeWidth=2;" parent="1" source="nQjChulMufH8_7eePQzm-3" target="nQjChulMufH8_7eePQzm-48" edge="1">
          <mxGeometry width="50" height="50" relative="1" as="geometry">
            <mxPoint x="182.27028039597235" y="440.35038739152856" as="sourcePoint" />
            <mxPoint x="299.71000000000004" y="425.00395894428175" as="targetPoint" />
          </mxGeometry>
        </mxCell>
        <mxCell id="nQjChulMufH8_7eePQzm-99" value="" style="endArrow=classic;startArrow=classic;html=1;exitX=1;exitY=0.5;exitDx=0;exitDy=0;exitPerimeter=0;entryX=0.355;entryY=0.865;entryDx=0;entryDy=0;entryPerimeter=0;" parent="1" source="nQjChulMufH8_7eePQzm-84" target="nQjChulMufH8_7eePQzm-11" edge="1">
          <mxGeometry width="50" height="50" relative="1" as="geometry">
            <mxPoint x="160" y="690" as="sourcePoint" />
            <mxPoint x="210" y="640" as="targetPoint" />
          </mxGeometry>
        </mxCell>
        <mxCell id="nQjChulMufH8_7eePQzm-20" value="Palo Alto" style="image;html=1;image=img/lib/clip_art/networking/Firewall_02_128x128.png" parent="1" vertex="1">
          <mxGeometry x="642.5" y="450" width="60" height="40" as="geometry" />
        </mxCell>
        <mxCell id="nQjChulMufH8_7eePQzm-100" value="" style="endArrow=none;dashed=1;html=1;entryX=0.8;entryY=0.8;entryDx=0;entryDy=0;entryPerimeter=0;" parent="1" source="nQjChulMufH8_7eePQzm-6" target="nQjChulMufH8_7eePQzm-20" edge="1">
          <mxGeometry width="50" height="50" relative="1" as="geometry">
            <mxPoint x="651.02" y="417.800458122437" as="sourcePoint" />
            <mxPoint x="140.00000000000045" y="465" as="targetPoint" />
          </mxGeometry>
        </mxCell>
        <mxCell id="nQjChulMufH8_7eePQzm-102" value="ENT" style="pointerEvents=1;shadow=0;dashed=0;html=1;strokeColor=none;fillColor=#4495D1;labelPosition=center;verticalLabelPosition=bottom;verticalAlign=top;align=center;outlineConnect=0;shape=mxgraph.veeam.hyper_v_vmware_host;" parent="1" vertex="1">
          <mxGeometry x="752.5" y="560" width="30" height="50" as="geometry" />
        </mxCell>
        <mxCell id="nQjChulMufH8_7eePQzm-103" value="PCI" style="pointerEvents=1;shadow=0;dashed=0;html=1;strokeColor=none;fillColor=#4495D1;labelPosition=center;verticalLabelPosition=bottom;verticalAlign=top;align=center;outlineConnect=0;shape=mxgraph.veeam.hyper_v_vmware_host;" parent="1" vertex="1">
          <mxGeometry x="792.5" y="560" width="30" height="50" as="geometry" />
        </mxCell>
        <mxCell id="nQjChulMufH8_7eePQzm-106" style="edgeStyle=orthogonalEdgeStyle;rounded=0;orthogonalLoop=1;jettySize=auto;html=1;exitX=0.5;exitY=1;exitDx=0;exitDy=0;exitPerimeter=0;entryX=0.75;entryY=1;entryDx=0;entryDy=0;entryPerimeter=0;" parent="1" source="nQjChulMufH8_7eePQzm-78" target="nQjChulMufH8_7eePQzm-78" edge="1">
          <mxGeometry relative="1" as="geometry" />
        </mxCell>
        <mxCell id="nQjChulMufH8_7eePQzm-107" value="Frankfurt DC&amp;nbsp;" style="points=[[0,0],[0.25,0],[0.5,0],[0.75,0],[1,0],[1,0.25],[1,0.5],[1,0.75],[1,1],[0.75,1],[0.5,1],[0.25,1],[0,1],[0,0.75],[0,0.5],[0,0.25]];outlineConnect=0;gradientColor=none;html=1;whiteSpace=wrap;fontSize=12;fontStyle=0;shape=mxgraph.aws4.group;grIcon=mxgraph.aws4.group_corporate_data_center;strokeColor=#5A6C86;fillColor=none;verticalAlign=top;align=left;spacingLeft=30;fontColor=#5A6C86;dashed=0;shadow=0;" parent="1" vertex="1">
          <mxGeometry x="540" y="377.5" width="100" height="60" as="geometry" />
        </mxCell>
        <mxCell id="nQjChulMufH8_7eePQzm-108" value="Palo Alto" style="image;html=1;image=img/lib/clip_art/networking/Firewall_02_128x128.png" parent="1" vertex="1">
          <mxGeometry x="590" y="397.5" width="30" height="20" as="geometry" />
        </mxCell>
        <mxCell id="nQjChulMufH8_7eePQzm-109" value="&lt;font color=&quot;#e02d2d&quot;&gt;EXL reside on the 3rdParty VRF &amp;amp; need to hair pin via an in region DC – Singapore is the primary for APAC&lt;/font&gt;" style="text;html=1;strokeColor=none;fillColor=none;align=center;verticalAlign=middle;whiteSpace=wrap;rounded=0;shadow=0;" parent="1" vertex="1">
          <mxGeometry x="-150" y="249.70000000000002" width="180" height="60.59" as="geometry" />
        </mxCell>
        <mxCell id="nQjChulMufH8_7eePQzm-110" value="Melborne DC" style="points=[[0,0],[0.25,0],[0.5,0],[0.75,0],[1,0],[1,0.25],[1,0.5],[1,0.75],[1,1],[0.75,1],[0.5,1],[0.25,1],[0,1],[0,0.75],[0,0.5],[0,0.25]];outlineConnect=0;gradientColor=none;html=1;whiteSpace=wrap;fontSize=12;fontStyle=0;shape=mxgraph.aws4.group;grIcon=mxgraph.aws4.group_corporate_data_center;strokeColor=#5A6C86;fillColor=none;verticalAlign=top;align=left;spacingLeft=30;fontColor=#5A6C86;dashed=0;shadow=0;" parent="1" vertex="1">
          <mxGeometry x="160" y="400" width="100" height="50" as="geometry" />
        </mxCell>
        <mxCell id="nQjChulMufH8_7eePQzm-111" value="WTC DC" style="points=[[0,0],[0.25,0],[0.5,0],[0.75,0],[1,0],[1,0.25],[1,0.5],[1,0.75],[1,1],[0.75,1],[0.5,1],[0.25,1],[0,1],[0,0.75],[0,0.5],[0,0.25]];outlineConnect=0;gradientColor=none;html=1;whiteSpace=wrap;fontSize=12;fontStyle=0;shape=mxgraph.aws4.group;grIcon=mxgraph.aws4.group_corporate_data_center;strokeColor=#5A6C86;fillColor=none;verticalAlign=top;align=left;spacingLeft=30;fontColor=#5A6C86;dashed=0;shadow=0;" parent="1" vertex="1">
          <mxGeometry x="215" y="630" width="90" height="57.5" as="geometry" />
        </mxCell>
        <mxCell id="nQjChulMufH8_7eePQzm-112" value="Singapore DC" style="points=[[0,0],[0.25,0],[0.5,0],[0.75,0],[1,0],[1,0.25],[1,0.5],[1,0.75],[1,1],[0.75,1],[0.5,1],[0.25,1],[0,1],[0,0.75],[0,0.5],[0,0.25]];outlineConnect=0;gradientColor=none;html=1;whiteSpace=wrap;fontSize=12;fontStyle=0;shape=mxgraph.aws4.group;grIcon=mxgraph.aws4.group_corporate_data_center;strokeColor=#5A6C86;fillColor=none;verticalAlign=top;align=left;spacingLeft=30;fontColor=#5A6C86;dashed=0;shadow=0;" parent="1" vertex="1">
          <mxGeometry x="311.25" y="385" width="98.75" height="45" as="geometry" />
        </mxCell>
        <mxCell id="nQjChulMufH8_7eePQzm-113" value="Palo Alto" style="image;html=1;image=img/lib/clip_art/networking/Firewall_02_128x128.png" parent="1" vertex="1">
          <mxGeometry x="365" y="405" width="30" height="20" as="geometry" />
        </mxCell>
        <mxCell id="nQjChulMufH8_7eePQzm-115" value="Palo Alto" style="image;html=1;image=img/lib/clip_art/networking/Firewall_02_128x128.png" parent="1" vertex="1">
          <mxGeometry x="270" y="650" width="30" height="20" as="geometry" />
        </mxCell>
        <mxCell id="nQjChulMufH8_7eePQzm-116" value="Palo Alto" style="image;html=1;image=img/lib/clip_art/networking/Firewall_02_128x128.png" parent="1" vertex="1">
          <mxGeometry x="210" y="405" width="30" height="20" as="geometry" />
        </mxCell>
        <mxCell id="nQjChulMufH8_7eePQzm-117" value="" style="curved=1;endArrow=classic;html=1;entryX=0.16;entryY=0.55;entryDx=0;entryDy=0;entryPerimeter=0;" parent="1" source="nQjChulMufH8_7eePQzm-19" target="nQjChulMufH8_7eePQzm-27" edge="1">
          <mxGeometry width="50" height="50" relative="1" as="geometry">
            <mxPoint x="420" y="580" as="sourcePoint" />
            <mxPoint x="470" y="530" as="targetPoint" />
            <Array as="points">
              <mxPoint x="470" y="580" />
              <mxPoint x="420" y="530" />
            </Array>
          </mxGeometry>
        </mxCell>
        <mxCell id="nQjChulMufH8_7eePQzm-118" value="" style="curved=1;endArrow=classic;html=1;" parent="1" source="nQjChulMufH8_7eePQzm-27" target="nQjChulMufH8_7eePQzm-18" edge="1">
          <mxGeometry width="50" height="50" relative="1" as="geometry">
            <mxPoint x="500" y="480" as="sourcePoint" />
            <mxPoint x="550" y="430" as="targetPoint" />
            <Array as="points">
              <mxPoint x="550" y="480" />
              <mxPoint x="500" y="430" />
            </Array>
          </mxGeometry>
        </mxCell>
        <mxCell id="nQjChulMufH8_7eePQzm-119" value="" style="points=[[0,0,0],[0.25,0,0],[0.5,0,0],[0.75,0,0],[1,0,0],[0,1,0],[0.25,1,0],[0.5,1,0],[0.75,1,0],[1,1,0],[0,0.25,0],[0,0.5,0],[0,0.75,0],[1,0.25,0],[1,0.5,0],[1,0.75,0]];outlineConnect=0;fontColor=#232F3E;gradientColor=#945DF2;gradientDirection=north;fillColor=#5A30B5;strokeColor=#ffffff;dashed=0;verticalLabelPosition=bottom;verticalAlign=top;align=center;html=1;fontSize=12;fontStyle=0;aspect=fixed;shape=mxgraph.aws4.resourceIcon;resIcon=mxgraph.aws4.direct_connect;shadow=0;" parent="1" vertex="1">
          <mxGeometry x="427.27" y="350" width="45" height="45" as="geometry" />
        </mxCell>
      </root>
    </mxGraphModel>
  </diagram>
  <diagram id="HdJo53l2TLziuSK734fj" name="Page-2">
    <mxGraphModel dx="1422" dy="737" grid="1" gridSize="10" guides="1" tooltips="1" connect="1" arrows="1" fold="1" page="1" pageScale="1" pageWidth="850" pageHeight="1100" math="0" shadow="0">
      <root>
        <mxCell id="90cGrsTehvcBkwu1-v4z-0" />
        <mxCell id="90cGrsTehvcBkwu1-v4z-1" parent="90cGrsTehvcBkwu1-v4z-0" />
        <mxCell id="H5nYViIzheuK38Vnnqxi-18" value="" style="rounded=1;arcSize=10;dashed=1;fillColor=none;gradientColor=none;dashPattern=1 1;strokeWidth=2;" vertex="1" parent="90cGrsTehvcBkwu1-v4z-1">
          <mxGeometry x="50" y="280" width="740" height="550" as="geometry" />
        </mxCell>
        <mxCell id="H5nYViIzheuK38Vnnqxi-0" value="VPC" style="points=[[0,0],[0.25,0],[0.5,0],[0.75,0],[1,0],[1,0.25],[1,0.5],[1,0.75],[1,1],[0.75,1],[0.5,1],[0.25,1],[0,1],[0,0.75],[0,0.5],[0,0.25]];outlineConnect=0;gradientColor=none;html=1;whiteSpace=wrap;fontSize=12;fontStyle=0;shape=mxgraph.aws4.group;grIcon=mxgraph.aws4.group_vpc;strokeColor=#248814;fillColor=none;verticalAlign=top;align=left;spacingLeft=30;fontColor=#AAB7B8;dashed=0;" vertex="1" parent="90cGrsTehvcBkwu1-v4z-1">
          <mxGeometry x="40" y="160" width="760" height="680" as="geometry" />
        </mxCell>
        <mxCell id="H5nYViIzheuK38Vnnqxi-3" value="" style="points=[[0,0,0],[0.25,0,0],[0.5,0,0],[0.75,0,0],[1,0,0],[0,1,0],[0.25,1,0],[0.5,1,0],[0.75,1,0],[1,1,0],[0,0.25,0],[0,0.5,0],[0,0.75,0],[1,0.25,0],[1,0.5,0],[1,0.75,0]];outlineConnect=0;fontColor=#232F3E;gradientColor=#945DF2;gradientDirection=north;fillColor=#5A30B5;strokeColor=#ffffff;dashed=0;verticalLabelPosition=bottom;verticalAlign=top;align=center;html=1;fontSize=12;fontStyle=0;aspect=fixed;shape=mxgraph.aws4.resourceIcon;resIcon=mxgraph.aws4.direct_connect;" vertex="1" parent="90cGrsTehvcBkwu1-v4z-1">
          <mxGeometry x="120" y="850" width="68" height="68" as="geometry" />
        </mxCell>
        <mxCell id="H5nYViIzheuK38Vnnqxi-4" value="&lt;b&gt;&lt;font style=&quot;font-size: 14px&quot;&gt;Algosec Servers - AWS&amp;nbsp;&lt;/font&gt;&lt;/b&gt;" style="text;html=1;strokeColor=none;fillColor=none;align=center;verticalAlign=middle;whiteSpace=wrap;rounded=0;" vertex="1" parent="90cGrsTehvcBkwu1-v4z-1">
          <mxGeometry x="40" y="20" width="180" height="20" as="geometry" />
        </mxCell>
        <mxCell id="H5nYViIzheuK38Vnnqxi-6" value="GBT DC ON- PRIME" style="whiteSpace=wrap;html=1;aspect=fixed;" vertex="1" parent="90cGrsTehvcBkwu1-v4z-1">
          <mxGeometry x="40" y="940" width="130" height="130" as="geometry" />
        </mxCell>
        <mxCell id="H5nYViIzheuK38Vnnqxi-8" value="" style="endArrow=classic;startArrow=classic;html=1;exitX=0.5;exitY=0;exitDx=0;exitDy=0;entryX=0.25;entryY=1;entryDx=0;entryDy=0;entryPerimeter=0;" edge="1" parent="90cGrsTehvcBkwu1-v4z-1" source="H5nYViIzheuK38Vnnqxi-6" target="H5nYViIzheuK38Vnnqxi-3">
          <mxGeometry width="50" height="50" relative="1" as="geometry">
            <mxPoint x="400" y="910" as="sourcePoint" />
            <mxPoint x="450" y="860" as="targetPoint" />
            <Array as="points" />
          </mxGeometry>
        </mxCell>
        <mxCell id="H5nYViIzheuK38Vnnqxi-9" value="" style="endArrow=classic;startArrow=classic;html=1;exitX=0.75;exitY=0;exitDx=0;exitDy=0;exitPerimeter=0;entryX=0.25;entryY=1;entryDx=0;entryDy=0;" edge="1" parent="90cGrsTehvcBkwu1-v4z-1" source="H5nYViIzheuK38Vnnqxi-3" target="H5nYViIzheuK38Vnnqxi-0">
          <mxGeometry width="50" height="50" relative="1" as="geometry">
            <mxPoint x="400" y="910" as="sourcePoint" />
            <mxPoint x="450" y="860" as="targetPoint" />
            <Array as="points" />
          </mxGeometry>
        </mxCell>
        <mxCell id="H5nYViIzheuK38Vnnqxi-14" value="" style="edgeStyle=orthogonalEdgeStyle;rounded=0;orthogonalLoop=1;jettySize=auto;html=1;" edge="1" parent="90cGrsTehvcBkwu1-v4z-1" source="H5nYViIzheuK38Vnnqxi-10" target="H5nYViIzheuK38Vnnqxi-13">
          <mxGeometry relative="1" as="geometry" />
        </mxCell>
        <mxCell id="H5nYViIzheuK38Vnnqxi-10" value="" style="rounded=1;arcSize=10;dashed=1;strokeColor=#F59D56;fillColor=none;gradientColor=none;dashPattern=8 4;strokeWidth=2;" vertex="1" parent="90cGrsTehvcBkwu1-v4z-1">
          <mxGeometry x="80" y="310" width="300" height="510" as="geometry" />
        </mxCell>
        <mxCell id="H5nYViIzheuK38Vnnqxi-13" value="" style="rounded=1;arcSize=10;dashed=1;strokeColor=#F59D56;fillColor=none;gradientColor=none;dashPattern=8 4;strokeWidth=2;" vertex="1" parent="90cGrsTehvcBkwu1-v4z-1">
          <mxGeometry x="480" y="310" width="300" height="510" as="geometry" />
        </mxCell>
        <mxCell id="H5nYViIzheuK38Vnnqxi-15" value="" style="rounded=1;arcSize=10;dashed=1;strokeColor=#ff0000;fillColor=none;gradientColor=none;dashPattern=8 4;strokeWidth=2;" vertex="1" parent="90cGrsTehvcBkwu1-v4z-1">
          <mxGeometry x="180.5" y="410" width="199.5" height="70" as="geometry" />
        </mxCell>
        <mxCell id="H5nYViIzheuK38Vnnqxi-17" value="" style="rounded=1;arcSize=10;dashed=1;strokeColor=#ff0000;fillColor=none;gradientColor=none;dashPattern=8 4;strokeWidth=2;" vertex="1" parent="90cGrsTehvcBkwu1-v4z-1">
          <mxGeometry x="580" y="410" width="199.5" height="70" as="geometry" />
        </mxCell>
        <mxCell id="H5nYViIzheuK38Vnnqxi-19" value="" style="outlineConnect=0;dashed=0;verticalLabelPosition=bottom;verticalAlign=top;align=center;html=1;shape=mxgraph.aws3.application_load_balancer;fillColor=#F58534;gradientColor=none;" vertex="1" parent="90cGrsTehvcBkwu1-v4z-1">
          <mxGeometry x="400" y="270" width="69" height="72" as="geometry" />
        </mxCell>
        <mxCell id="H5nYViIzheuK38Vnnqxi-20" value="" style="outlineConnect=0;dashed=0;verticalLabelPosition=bottom;verticalAlign=top;align=center;html=1;shape=mxgraph.aws3.auto_scaling;fillColor=#F58534;gradientColor=none;" vertex="1" parent="90cGrsTehvcBkwu1-v4z-1">
          <mxGeometry x="401" y="407" width="79.5" height="76.5" as="geometry" />
        </mxCell>
      </root>
    </mxGraphModel>
  </diagram>
</mxfile>
